<!DOCTYPE svg PUBLIC "-//W3C//DTD SVG 1.1//EN" "http://www.w3.org/Graphics/SVG/1.1/DTD/svg11.dtd">
<!-- Uploaded to: SVG Repo, www.svgrepo.com, Transformed by: SVG Repo Mixer Tools -->
<svg width="256px" height="256px" viewBox="-2.5 -2.5 30.00 30.00" fill="none" xmlns="http://www.w3.org/2000/svg" transform="rotate(0)">
<g id="SVGRepo_bgCarrier" stroke-width="0" transform="translate(0,0), scale(1)">
<path transform="translate(-2.5, -2.5), scale(0.9375)" d="M16,31.09875241241285C19.375979646306977,31.22619154008937,21.836234132325313,28.211106453577393,24.436110696154543,26.05376522966462C27.05515344543577,23.88052017302532,30.646604994488943,22.030293444702146,31.007014536226553,18.646141562620873C31.363535274704173,15.298504531971911,27.88141433655111,13.026553789464229,26.129675836388778,10.151628929057294C24.443941558584214,7.385029129571609,23.81418388092122,3.8585258793740804,21.009073735797404,2.2376830185134295C17.89755600532202,0.43979236931763754,13.972078525045104,-0.07819522208073981,10.606767086177427,1.1822143514130197C7.258610558110863,2.4361988988136742,4.809452648374521,5.458656671763443,3.5128504267863683,8.790540832493981C2.3491894444659454,11.780805333741371,3.168940203893503,15.018445109422798,4.018270267694412,18.112702227362284C4.780237108919521,20.8886799333008,6.129849649040378,23.320731608458065,8.081908511430228,25.436413977992654C10.35066490244355,27.895339776653937,12.656701654069563,30.97254696409689,16,31.09875241241285" fill="#ebebeb" strokewidth="0"/>
</g>
<g id="SVGRepo_tracerCarrier" stroke-linecap="round" stroke-linejoin="round" stroke="#CCCCCC" stroke-width="0.1"/>
<g id="SVGRepo_iconCarrier"> <path d="M19.0006 9.03002C19.0007 8.10058 18.8158 7.18037 18.4565 6.32317C18.0972 5.46598 17.5709 4.68895 16.9081 4.03734C16.2453 3.38574 15.4594 2.87265 14.5962 2.52801C13.7331 2.18336 12.8099 2.01409 11.8806 2.03002C10.0966 2.08307 8.39798 2.80604 7.12302 4.05504C5.84807 5.30405 5.0903 6.98746 5.00059 8.77001C4.95795 9.9595 5.21931 11.1402 5.75999 12.2006C6.30067 13.2609 7.10281 14.1659 8.09058 14.83C8.36897 15.011 8.59791 15.2584 8.75678 15.5499C8.91565 15.8415 8.99945 16.168 9.00059 16.5V18.03H15.0006V16.5C15.0006 16.1689 15.0829 15.843 15.24 15.5515C15.3971 15.26 15.6241 15.0121 15.9006 14.83C16.8528 14.1911 17.6336 13.328 18.1741 12.3167C18.7147 11.3054 18.9985 10.1767 19.0006 9.03002Z" stroke="#000000" stroke-width="1.8" stroke-linecap="round" stroke-linejoin="round"/> <path d="M15 21.04C14.1345 21.6891 13.0819 22.04 12 22.04C10.9181 22.04 9.86548 21.6891 9 21.04" stroke="#000000" stroke-width="1.8" stroke-linecap="round" stroke-linejoin="round"/> <path d="M11.9901 5.64001L10.3301 8.41998C10.2549 8.54184 10.2138 8.68167 10.2111 8.82483C10.2084 8.96799 10.2441 9.10925 10.3146 9.23389C10.3851 9.35852 10.4877 9.46195 10.6118 9.53339C10.7359 9.60482 10.8769 9.64165 11.0201 9.64001H13.0201C13.1617 9.63947 13.301 9.67657 13.4237 9.7475C13.5463 9.81843 13.6479 9.92063 13.7181 10.0437C13.7883 10.1668 13.8245 10.3063 13.8231 10.4479C13.8217 10.5896 13.7827 10.7283 13.7101 10.85L12.0301 13.64" stroke="#000000" stroke-width="1.8" stroke-linecap="round" stroke-linejoin="round"/> </g>
</svg>